<svg width="1411" height="1411" viewBox="0 0 1411 1411" fill="none" xmlns="http://www.w3.org/2000/svg">
<g clip-path="url(#clip0_220_2284)">
<rect width="1411" height="1411" fill="white"/>
<rect width="1411" height="1411" fill="#FAFAFA"/>
<circle cx="705.5" cy="705.5" r="705.5" fill="url(#paint0_linear_220_2284)"/>
<path d="M705 1356C345.71 1356 55 1064.86 55 706C55 346.71 346.141 56 705 56C1064.29 56 1355 347.141 1355 706C1355.43 1065.29 1064.29 1356 705 1356Z" fill="#FFEAD3"/>
<mask id="mask0_220_2284" style="mask-type:alpha" maskUnits="userSpaceOnUse" x="55" y="56" width="1301" height="1300">
<path d="M705 1356C345.71 1356 55 1064.86 55 706C55 346.71 346.141 56 705 56C1064.29 56 1355 347.141 1355 706C1355.43 1065.29 1064.29 1356 705 1356Z" fill="#F7C0B5"/>
</mask>
<g mask="url(#mask0_220_2284)">
<path d="M1070.73 1253.33C1067.7 1255.5 1064.23 1257.66 1061.2 1259.83C1057.73 1262 1054.7 1264.16 1051.23 1265.9C1048.2 1267.63 1045.6 1269.36 1042.56 1271.1C1042.13 1271.53 1041.7 1271.53 1041.26 1271.96C1031.3 1278.03 1020.9 1283.66 1010.5 1288.86C1007.46 1290.6 1004 1292.33 1000.96 1293.63C1000.96 1293.63 1000.53 1294.06 1000.1 1294.06C996.631 1295.8 993.164 1297.53 989.698 1299.26C982.764 1302.73 975.398 1305.76 968.464 1308.8C964.998 1310.53 961.098 1311.83 957.631 1313.13C954.164 1314.43 950.264 1316.16 946.798 1317.46C943.331 1318.76 939.431 1320.5 935.964 1321.8C935.964 1321.8 935.964 1321.8 935.531 1321.8C932.064 1323.1 928.164 1324.4 924.698 1325.7C916.898 1328.3 908.664 1330.9 900.864 1333.5C898.264 1334.36 895.231 1335.23 892.631 1336.1C884.398 1338.7 876.164 1340.86 867.931 1342.6C864.898 1343.46 861.864 1343.9 858.398 1344.76C850.598 1346.5 842.364 1348.23 834.564 1349.96C832.831 1350.4 831.531 1350.4 829.798 1350.83C827.198 1351.26 824.164 1351.7 821.564 1352.13C817.664 1352.56 814.198 1353.43 810.298 1353.86C808.564 1354.3 806.831 1354.3 805.098 1354.73C802.931 1355.16 800.331 1355.6 797.731 1355.6C790.798 1356.46 783.431 1357.33 776.498 1358.2C774.331 1358.63 771.731 1358.63 769.564 1359.06H769.131C766.098 1359.5 763.064 1359.5 760.031 1359.93C756.998 1360.36 753.964 1360.36 750.931 1360.36C749.198 1360.36 747.031 1360.8 745.298 1360.8C741.831 1360.8 738.798 1361.23 735.764 1361.23C731.431 1361.23 727.531 1361.66 723.198 1361.66C718.864 1361.66 714.964 1361.66 710.631 1361.66C707.598 1361.66 704.564 1361.66 701.531 1361.66C519.098 1359.06 354.431 1281.5 237.431 1158.43C237.431 1158.43 237.431 1158 236.998 1158C250.431 1131.56 300.264 1083.9 352.264 1044.46C418.131 994.631 511.298 963.865 511.298 963.865C511.298 963.865 572.398 953.898 799.031 1001.13C971.931 1037.53 1045.6 1185.3 1070.73 1253.33Z" fill="#EED0A5"/>
<path d="M847.131 1121.16C838.031 1165.8 779.098 1192.23 679.864 1152.36C558.098 1102.96 511.298 963.865 511.298 963.865C504.798 864.198 489.631 778.831 489.631 778.831C630.464 766.698 796.864 931.365 796.864 931.365L815.931 1012.83C817.664 1019.76 821.131 1025.83 826.331 1030.16C835.431 1045.76 853.198 1092.56 847.131 1121.16Z" fill="#EED0A5"/>
<path d="M826.331 1030.6C743.564 1026.26 682.464 1014.13 617.031 896.698C672.498 945.665 737.931 964.298 806.831 972.965L815.931 1012.83C817.664 1020.2 821.131 1026.26 826.331 1030.6Z" fill="#666464"/>
<path d="M997.498 508.431C1005.3 544.831 1009.2 574.298 987.964 671.365C966.731 768.431 1007.46 865.498 905.198 954.331C836.298 1014.13 715.831 1025.4 619.631 959.965C587.131 937.865 557.231 907.098 532.964 866.798C513.898 835.165 491.798 805.265 467.098 777.965C432.864 740.698 391.698 665.731 412.064 533.132C444.998 317.332 658.631 292.632 784.731 316.465C910.831 340.298 976.264 412.231 997.498 508.431Z" fill="#EED0A5"/>
<path d="M582.798 677.865C582.798 677.865 569.365 612.865 506.098 620.665C451.498 627.598 432.431 758.465 556.365 794.865" fill="#EED0A5"/>
<path d="M552.465 735.498C552.465 735.498 536.865 725.531 538.598 708.198C541.198 687.831 538.598 675.265 529.065 671.365C505.231 661.398 500.465 689.131 501.331 692.598" stroke="#423232" stroke-width="13" stroke-miterlimit="10" stroke-linecap="round" stroke-linejoin="round"/>
<path d="M883.098 777.532C883.098 777.532 899.564 778.398 915.164 759.765C923.831 749.365 931.198 736.365 926.431 732.465C921.664 728.132 843.231 740.265 838.031 750.665C832.831 761.065 863.164 777.532 883.098 777.532Z" fill="#666464"/>
<path d="M896.098 631.932C896.098 631.932 896.965 673.098 923.398 719.032C935.098 739.398 917.331 772.765 878.765 778.398" stroke="#423232" stroke-width="13" stroke-miterlimit="10" stroke-linecap="round" stroke-linejoin="round"/>
<path d="M1112.78 1172.61C1051.25 1093.31 955.917 1060.37 903.483 1040.87C899.15 1019.21 890.917 995.373 877.917 972.407C857.984 984.54 835.017 993.64 811.184 998.407L814.65 1012.71C816.383 1019.64 825.05 1051.71 811.617 1092.87C800.35 1127.54 754.85 1143.14 677.717 1108.04C527.35 1040.01 510.017 963.307 510.017 963.307C507.417 921.707 503.084 882.707 499.184 851.073C452.384 861.473 398.217 882.707 368.75 927.34C332.35 981.94 318.917 1037.41 322.384 1081.61C259.117 1121.91 161.184 1183.01 129.117 1292.21C87.5168 1434.34 94.4502 1521.44 94.4502 1521.44H1214.18C1212.88 1521.87 1196.42 1280.51 1112.78 1172.61Z" fill="#544D4D"/>
<path d="M443.283 1030.47C443.283 1030.47 469.716 1133.17 585.416 1204.24" stroke="#423232" stroke-width="13" stroke-miterlimit="10" stroke-linecap="round" stroke-linejoin="round"/>
<path d="M903.05 1040.87C903.05 1040.87 933.817 1173.91 866.65 1235.01" stroke="#423232" stroke-width="13" stroke-miterlimit="10" stroke-linecap="round" stroke-linejoin="round"/>
<path d="M694.183 1214.64C694.183 1214.64 671.65 1280.51 677.717 1326.01" stroke="#423232" stroke-width="13" stroke-miterlimit="10" stroke-linecap="round" stroke-linejoin="round"/>
<path d="M832.417 1210.74C832.417 1210.74 849.318 1247.57 861.451 1306.07" stroke="#423232" stroke-width="13" stroke-miterlimit="10" stroke-linecap="round" stroke-linejoin="round"/>
<path d="M321.517 1082.04C321.517 1082.04 357.05 1226.77 568.517 1269.24" stroke="#423232" stroke-width="13" stroke-miterlimit="10" stroke-linecap="round" stroke-linejoin="round"/>
<path d="M681.617 1335.97L662.55 1334.24C655.617 1333.37 650.417 1326.87 651.717 1319.94L658.217 1287.44C659.95 1278.34 668.617 1271.84 677.717 1273.14C686.817 1274.01 694.183 1281.81 694.183 1291.34L694.617 1324.71C694.617 1331.21 688.55 1336.84 681.617 1335.97Z" fill="white"/>
<path d="M880.517 1316.04L862.317 1322.54C855.384 1325.14 848.017 1320.81 846.717 1313.87L838.917 1281.81C836.75 1272.71 841.517 1263.61 850.617 1260.14C859.284 1257.11 869.25 1261.01 873.15 1269.24L887.45 1299.14C890.484 1305.64 887.45 1313.44 880.517 1316.04Z" fill="white"/>
<path d="M1071.62 1306.07C1071.62 1306.07 1095.88 1442.14 1086.35 1521.87" stroke="#544D4D" stroke-width="13" stroke-miterlimit="10" stroke-linecap="round" stroke-linejoin="round"/>
<path d="M798.042 582.549C807.576 583.849 814.942 573.883 811.476 564.349C809.742 559.149 806.709 554.383 801.942 551.349C787.209 542.249 732.176 541.383 703.142 562.183C677.576 581.249 754.709 576.483 798.042 582.549Z" fill="#423232"/>
<path d="M918.074 587.316C910.274 587.316 905.508 577.349 909.408 569.116C911.574 564.783 914.608 560.883 918.941 558.716C932.374 552.216 968.341 556.116 984.374 578.216C998.674 597.716 954.041 586.883 918.074 587.316Z" fill="#423232"/>
<path d="M782.875 637.149C749.075 651.449 711.375 633.683 711.375 633.683" stroke="#423232" stroke-width="13" stroke-miterlimit="10" stroke-linecap="round" stroke-linejoin="round"/>
<path d="M954.042 645.816C954.042 645.816 930.642 660.116 901.175 643.216" stroke="#423232" stroke-width="13" stroke-miterlimit="10" stroke-linecap="round" stroke-linejoin="round"/>
<path d="M867.331 829.797C856.498 834.564 851.297 825.031 834.397 833.264C822.264 838.897 815.764 840.631 801.031 831.964C791.497 825.897 779.797 834.564 768.531 818.097" stroke="#423232" stroke-width="13" stroke-miterlimit="10" stroke-linecap="round" stroke-linejoin="round"/>
<path d="M994.688 634.561C1006.39 568.694 1002.92 542.694 995.989 511.928C993.822 502.394 991.222 493.294 988.188 484.194C960.888 472.061 938.355 505.861 901.089 500.661C801.855 487.227 726.022 444.761 642.389 462.961C589.955 474.227 581.289 521.461 596.455 608.561C600.789 632.394 600.789 655.361 580.422 679.194C576.955 667.061 560.055 617.661 504.589 624.594C452.155 631.094 432.222 752.427 540.555 794.027C539.689 817.861 517.589 862.061 499.822 872.027C499.822 872.027 496.789 840.394 462.122 798.794C427.455 757.194 358.122 649.294 404.922 491.561C451.722 333.828 663.622 251.494 860.789 331.661C894.589 345.527 922.322 365.028 944.422 385.394C996.422 433.061 1024.16 502.394 1015.92 572.161C1014.19 595.561 1007.69 618.094 994.688 634.561Z" fill="#423232"/>
<path d="M551.388 361.56C551.388 361.56 563.955 222.46 488.555 205.56C413.155 188.66 439.155 270.993 462.555 322.56C462.555 322.56 372.422 241.96 332.988 296.56C295.288 348.993 389.755 406.193 389.755 406.193C389.755 406.193 249.788 417.46 279.255 497.193C309.155 576.927 462.555 472.927 462.555 472.927C462.555 472.927 550.955 391.46 551.388 361.56Z" fill="#423232"/>
<path d="M932.818 714.314C921.118 700.014 905.951 690.048 887.751 689.614C868.685 689.181 838.785 693.514 808.885 717.348C769.885 748.548 691.885 743.781 661.118 740.748C652.451 739.881 644.218 744.214 640.318 752.014C631.651 769.348 619.951 805.314 625.585 863.381C632.951 942.681 697.518 1014.61 788.518 1008.55C908.118 1001.18 977.885 904.981 982.218 776.281C981.351 740.748 960.118 748.114 932.818 714.314Z" fill="white"/>
<path d="M772.919 740.748C772.919 740.748 955.352 823.081 970.952 763.281" stroke="#EDF3F4" stroke-width="13" stroke-miterlimit="10" stroke-linecap="round" stroke-linejoin="round"/>
<path d="M699.252 799.682C699.252 799.682 883.419 904.982 966.185 847.782" stroke="#EDF3F4" stroke-width="13" stroke-miterlimit="10" stroke-linecap="round" stroke-linejoin="round"/>
<path d="M692.752 874.215C692.752 874.215 787.652 959.582 924.152 928.815" stroke="#EDF3F4" stroke-width="13" stroke-miterlimit="10" stroke-linecap="round" stroke-linejoin="round"/>
<path d="M717.885 748.114C717.885 748.114 699.685 773.248 692.319 839.548C683.652 919.281 721.352 985.581 721.352 985.581" stroke="#EDF3F4" stroke-width="13" stroke-miterlimit="10" stroke-linecap="round" stroke-linejoin="round"/>
<path d="M657.651 751.581C657.651 751.581 607.818 716.914 572.718 657.114" stroke="white" stroke-width="13" stroke-miterlimit="10" stroke-linecap="round" stroke-linejoin="round"/>
<path d="M547.152 791.881C557.118 824.381 581.818 877.248 644.218 924.915" stroke="white" stroke-width="13" stroke-miterlimit="10" stroke-linecap="round" stroke-linejoin="round"/>
<path d="M532.159 692.126C532.159 692.126 497.492 686.926 500.092 735.46C501.392 760.16 501.392 773.593 500.959 780.526C500.525 785.293 503.559 789.626 507.892 791.36C513.092 793.526 518.725 791.36 521.325 786.16C525.225 779.226 529.559 769.693 529.559 761.893C529.559 748.893 543.425 737.193 543.425 737.193C543.425 737.193 530.859 726.36 532.159 692.126Z" fill="white"/>
<path d="M637.025 1527.59C633.558 1523.69 497.492 1290.99 517.858 1203.46C531.725 1143.23 513.525 1073.89 497.492 1012.79C490.992 987.66 484.925 964.26 481.458 943.46C475.392 907.493 479.725 873.26 494.458 841.626C510.492 806.093 507.892 775.326 507.892 774.893L516.558 774.026C516.558 775.326 519.158 807.826 502.258 845.093C488.392 874.993 484.492 907.926 490.125 942.16C493.592 962.526 499.658 985.926 506.158 1011.06C522.625 1073.03 540.825 1143.66 526.525 1206.06C507.458 1289.26 643.092 1521.96 643.958 1522.83L637.025 1527.59Z" fill="white"/>
<path d="M501.392 760.593C501.826 770.126 501.392 776.626 501.392 780.526C500.959 785.292 503.992 789.626 508.326 791.359C513.526 793.526 519.159 791.359 521.759 786.159C525.659 779.226 529.992 769.692 529.992 761.892C529.992 761.459 529.992 760.593 529.992 760.159C520.892 763.626 510.492 766.226 501.392 760.593Z" fill="#E5E5E5"/>
<path d="M909.159 1048.76C906.125 1068.69 905.692 1100.33 904.825 1137.16C903.525 1208.23 861.492 1485.13 841.125 1528.89L833.325 1525.43C852.825 1482.96 894.859 1207.36 896.159 1137.16C897.025 1100.33 897.459 1068.26 900.492 1047.46C906.992 1003.69 902.225 970.759 899.625 956.893C900.925 955.593 902.225 954.726 903.525 953.426C904.825 952.559 905.692 951.259 906.992 950.393C909.592 961.659 916.959 997.626 909.159 1048.76Z" fill="white"/>
</g>
</g>
<defs>
<linearGradient id="paint0_linear_220_2284" x1="-249" y1="388.5" x2="977" y2="978" gradientUnits="userSpaceOnUse">
<stop offset="0.44" stop-color="#FAD27B"/>
<stop offset="1" stop-color="#FF942A"/>
</linearGradient>
<clipPath id="clip0_220_2284">
<rect width="1411" height="1411" fill="white"/>
</clipPath>
</defs>
</svg>
